<svg width="25" height="25" viewBox="0 0 25 25" fill="none" xmlns="http://www.w3.org/2000/svg">
<path d="M24.9609 18.4961L23.6572 10.6836C23.5303 9.93164 22.8809 9.37988 22.1143 9.37988H10.1611V6.25488H14.8486C15.2783 6.25488 15.6299 5.90332 15.6299 5.47363V0.78125C15.6299 0.351562 15.2783 0 14.8486 0H2.34863C1.91895 0 1.56738 0.351562 1.56738 0.78125V5.46875C1.56738 5.89844 1.91895 6.25 2.34863 6.25H7.03613V9.375H2.89062C2.12891 9.375 1.47461 9.92676 1.34766 10.6787L0.0439453 18.4912C0.0146484 18.6621 0 18.833 0 19.0039V23.4375C0 24.3018 0.698242 25 1.5625 25H23.4375C24.3018 25 25 24.3018 25 23.4375V19.0088C25.0049 18.8379 24.9902 18.667 24.9609 18.4961ZM13.6768 12.1094C13.6768 11.6797 14.0283 11.3281 14.458 11.3281H15.2393C15.6689 11.3281 16.0205 11.6797 16.0205 12.1094V12.8906C16.0205 13.3203 15.6689 13.6719 15.2393 13.6719H14.458C14.0283 13.6719 13.6768 13.3203 13.6768 12.8906V12.1094ZM12.1143 15.2344H12.8955C13.3252 15.2344 13.6768 15.5859 13.6768 16.0156V16.7969C13.6768 17.2266 13.3252 17.5781 12.8955 17.5781H12.1143C11.6846 17.5781 11.333 17.2266 11.333 16.7969V16.0156C11.333 15.5859 11.6846 15.2344 12.1143 15.2344ZM10.5518 11.3281C10.9814 11.3281 11.333 11.6797 11.333 12.1094V12.8906C11.333 13.3203 10.9814 13.6719 10.5518 13.6719H9.77051C9.34082 13.6719 8.98926 13.3203 8.98926 12.8906V12.1094C8.98926 11.6797 9.34082 11.3281 9.77051 11.3281H10.5518ZM3.91113 3.90625V2.34375H13.2861V3.90625H3.91113ZM5.86426 13.6719H5.08301C4.65332 13.6719 4.30176 13.3203 4.30176 12.8906V12.1094C4.30176 11.6797 4.65332 11.3281 5.08301 11.3281H5.86426C6.29395 11.3281 6.64551 11.6797 6.64551 12.1094V12.8906C6.64551 13.3203 6.29395 13.6719 5.86426 13.6719ZM6.64551 16.7969V16.0156C6.64551 15.5859 6.99707 15.2344 7.42676 15.2344H8.20801C8.6377 15.2344 8.98926 15.5859 8.98926 16.0156V16.7969C8.98926 17.2266 8.6377 17.5781 8.20801 17.5781H7.42676C6.99707 17.5781 6.64551 17.2266 6.64551 16.7969ZM17.1924 22.2656C17.1924 22.4805 17.0166 22.6562 16.8018 22.6562H8.20801C7.99316 22.6562 7.81738 22.4805 7.81738 22.2656V21.4844C7.81738 21.2695 7.99316 21.0938 8.20801 21.0938H16.8018C17.0166 21.0938 17.1924 21.2695 17.1924 21.4844V22.2656ZM18.3643 16.7969C18.3643 17.2266 18.0127 17.5781 17.583 17.5781H16.8018C16.3721 17.5781 16.0205 17.2266 16.0205 16.7969V16.0156C16.0205 15.5859 16.3721 15.2344 16.8018 15.2344H17.583C18.0127 15.2344 18.3643 15.5859 18.3643 16.0156V16.7969ZM20.708 12.8906C20.708 13.3203 20.3564 13.6719 19.9268 13.6719H19.1455C18.7158 13.6719 18.3643 13.3203 18.3643 12.8906V12.1094C18.3643 11.6797 18.7158 11.3281 19.1455 11.3281H19.9268C20.3564 11.3281 20.708 11.6797 20.708 12.1094V12.8906Z" fill="white"/>
</svg>
