<svg width="22" height="26" viewBox="0 0 22 26" fill="none" xmlns="http://www.w3.org/2000/svg">
<path d="M16.5 13H5.5V16.25H16.5V13ZM21.599 5.33203L15.9901 0.355469C15.7323 0.126953 15.3828 0 15.0161 0H14.6667V6.5H22V6.19023C22 5.87031 21.8568 5.56055 21.599 5.33203ZM12.8333 6.90625V0H1.375C0.613021 0 0 0.543359 0 1.21875V24.7812C0 25.4566 0.613021 26 1.375 26H20.625C21.387 26 22 25.4566 22 24.7812V8.125H14.2083C13.4521 8.125 12.8333 7.57656 12.8333 6.90625ZM3.66667 3.65625C3.66667 3.4318 3.87177 3.25 4.125 3.25H8.70833C8.96156 3.25 9.16667 3.4318 9.16667 3.65625V4.46875C9.16667 4.6932 8.96156 4.875 8.70833 4.875H4.125C3.87177 4.875 3.66667 4.6932 3.66667 4.46875V3.65625ZM3.66667 6.90625C3.66667 6.6818 3.87177 6.5 4.125 6.5H8.70833C8.96156 6.5 9.16667 6.6818 9.16667 6.90625V7.71875C9.16667 7.9432 8.96156 8.125 8.70833 8.125H4.125C3.87177 8.125 3.66667 7.9432 3.66667 7.71875V6.90625ZM18.3333 22.3438C18.3333 22.5682 18.1282 22.75 17.875 22.75H13.2917C13.0384 22.75 12.8333 22.5682 12.8333 22.3438V21.5312C12.8333 21.3068 13.0384 21.125 13.2917 21.125H17.875C18.1282 21.125 18.3333 21.3068 18.3333 21.5312V22.3438ZM18.3333 12.1875V17.0625C18.3333 17.5114 17.9231 17.875 17.4167 17.875H4.58333C4.07688 17.875 3.66667 17.5114 3.66667 17.0625V12.1875C3.66667 11.7386 4.07688 11.375 4.58333 11.375H17.4167C17.9231 11.375 18.3333 11.7386 18.3333 12.1875Z" fill="#E3DEDE"/>
</svg>
