<svg width="15" height="15" viewBox="0 0 15 15" fill="none" xmlns="http://www.w3.org/2000/svg">
<path d="M13.1437 9.375H5.50969L5.68013 10.3125H12.6702C13.0713 10.3125 13.3685 10.7315 13.2796 11.1715L13.136 11.8827C13.6227 12.1485 13.9583 12.7098 13.9583 13.3594C13.9583 14.2735 13.2938 15.013 12.4785 14.9998C11.7019 14.9873 11.0632 14.2782 11.0422 13.4047C11.0308 12.9275 11.2007 12.4951 11.4798 12.1875H6.02021C6.29044 12.4853 6.45833 12.9002 6.45833 13.3594C6.45833 14.2914 5.7675 15.0419 4.93047 14.9982C4.18724 14.9594 3.58279 14.2838 3.54372 13.4479C3.51357 12.8024 3.8155 12.2334 4.27422 11.9366L2.44487 1.875H0.625C0.279818 1.875 0 1.5602 0 1.17187V0.703125C0 0.314795 0.279818 0 0.625 0H3.29503C3.59193 0 3.84784 0.23499 3.90734 0.562207L4.14604 1.875H14.3747C14.7758 1.875 15.0731 2.29397 14.9842 2.73395L13.7531 8.8277C13.6885 9.14783 13.4355 9.375 13.1437 9.375ZM10.4955 5.625H9.375V3.86719C9.375 3.67304 9.23508 3.51562 9.0625 3.51562H8.4375C8.26492 3.51562 8.125 3.67304 8.125 3.86719V5.625H7.00445C6.72604 5.625 6.58662 6.00369 6.78349 6.22514L8.52904 8.18888C8.65107 8.32617 8.84893 8.32617 8.97099 8.18888L10.7165 6.22514C10.9134 6.00369 10.774 5.625 10.4955 5.625Z" fill="white"/>
</svg>
